<svg width="16" height="16" fill="none" xmlns="http://www.w3.org/2000/svg"><path d="M7.805 3.801A4 4 0 003.8 7.807a4 4 0 004.006 4.006 4 4 0 004.006-4.006 4 4 0 00-4.006-4.006zm0 6.61a2.609 2.609 0 01-2.603-2.604 2.609 2.609 0 012.603-2.603 2.609 2.609 0 012.604 2.603 2.609 2.609 0 01-2.604 2.604zm4.17-7.707a.934.934 0 100 1.87.933.933 0 00.865-1.293.933.933 0 00-.865-.577zm3.639 5.103c0-1.078.01-2.146-.05-3.222-.062-1.25-.347-2.36-1.26-3.274-.917-.916-2.024-1.2-3.274-1.26-1.078-.06-2.147-.05-3.223-.05C6.73 0 5.661-.01 4.585.05c-1.25.06-2.36.346-3.274 1.26-.916.916-1.2 2.024-1.26 3.274-.06 1.078-.05 2.146-.05 3.222s-.01 2.147.05 3.223c.06 1.25.346 2.36 1.26 3.273.916.916 2.024 1.2 3.274 1.26 1.078.06 2.146.05 3.222.05 1.078 0 2.147.01 3.223-.05 1.25-.06 2.36-.346 3.273-1.26.916-.916 1.2-2.023 1.26-3.273.063-1.076.05-2.145.05-3.223zm-1.719 4.606a2.481 2.481 0 01-.59.894 2.5 2.5 0 01-.894.59c-1.028.408-3.467.316-4.606.316-1.138 0-3.58.092-4.607-.314a2.482 2.482 0 01-.895-.59 2.499 2.499 0 01-.59-.894c-.406-1.03-.314-3.47-.314-4.608 0-1.138-.092-3.58.314-4.607.143-.356.315-.621.59-.895.276-.273.54-.447.895-.59 1.027-.406 3.469-.314 4.607-.314 1.139 0 3.58-.092 4.608.314a2.5 2.5 0 01.894.59c.276.276.447.54.59.895.406 1.027.314 3.469.314 4.607 0 1.139.092 3.578-.316 4.606z" fill="#fff"/></svg>