<svg width="23" height="16" fill="none" xmlns="http://www.w3.org/2000/svg"><path d="M22.222 1.872a10.13 10.13 0 01-2.622.615c.95-.493 1.663-1.272 2.003-2.19a9.822 9.822 0 01-2.89.96A4.595 4.595 0 0017.2.326 5.116 5.116 0 0015.385 0c-2.523 0-4.553 1.786-4.553 3.977 0 .308.043.616.112.912C7.165 4.716 3.795 3.14 1.554.727a3.571 3.571 0 00-.62 2.008c0 1.38.805 2.597 2.03 3.312a5.11 5.11 0 01-2.059-.506v.05c0 1.932 1.565 3.534 3.651 3.902a5.487 5.487 0 01-1.199.135 7.12 7.12 0 01-.86-.06c.577 1.575 2.257 2.72 4.257 2.757-1.565 1.07-3.525 1.7-5.654 1.7-.382 0-.734-.012-1.1-.05 2.019 1.132 4.415 1.784 6.994 1.784 8.376 0 12.958-6.056 12.958-11.313 0-.173 0-.345-.013-.518a9.23 9.23 0 002.283-2.056z" fill="#fff"/></svg>