<svg width="16" height="16" viewBox="0 0 16 16" fill="none" xmlns="http://www.w3.org/2000/svg">
<path d="M7.80527 3.80136C5.58847 3.80136 3.79941 5.59042 3.79941 7.80722C3.79941 10.024 5.58847 11.8131 7.80527 11.8131C10.0221 11.8131 11.8111 10.024 11.8111 7.80722C11.8111 5.59042 10.0221 3.80136 7.80527 3.80136ZM7.80527 10.4107C6.37168 10.4107 5.20175 9.24082 5.20175 7.80722C5.20175 6.37363 6.37168 5.20371 7.80527 5.20371C9.23886 5.20371 10.4088 6.37363 10.4088 7.80722C10.4088 9.24082 9.23886 10.4107 7.80527 10.4107ZM11.9752 2.70371C11.4576 2.70371 11.0396 3.12167 11.0396 3.63925C11.0396 4.15683 11.4576 4.5748 11.9752 4.5748C12.4928 4.5748 12.9107 4.15878 12.9107 3.63925C12.9109 3.51635 12.8868 3.39463 12.8398 3.28105C12.7929 3.16748 12.724 3.06428 12.6371 2.97738C12.5502 2.89047 12.447 2.82157 12.3334 2.77461C12.2198 2.72765 12.0981 2.70355 11.9752 2.70371ZM15.6139 7.80722C15.6139 6.7291 15.6236 5.66074 15.5631 4.58457C15.5025 3.33457 15.2174 2.22519 14.3033 1.31113C13.3873 0.395112 12.2799 0.111909 11.0299 0.0513622C9.95175 -0.00918471 8.88339 0.000580946 7.80722 0.000580946C6.7291 0.000580946 5.66074 -0.00918471 4.58457 0.0513622C3.33457 0.111909 2.22519 0.397065 1.31113 1.31113C0.395112 2.22714 0.111909 3.33457 0.0513622 4.58457C-0.00918471 5.66269 0.000580946 6.73105 0.000580946 7.80722C0.000580946 8.88339 -0.00918471 9.95371 0.0513622 11.0299C0.111909 12.2799 0.397065 13.3893 1.31113 14.3033C2.22714 15.2193 3.33457 15.5025 4.58457 15.5631C5.66269 15.6236 6.73105 15.6139 7.80722 15.6139C8.88535 15.6139 9.95371 15.6236 11.0299 15.5631C12.2799 15.5025 13.3893 15.2174 14.3033 14.3033C15.2193 13.3873 15.5025 12.2799 15.5631 11.0299C15.6256 9.95371 15.6139 8.88535 15.6139 7.80722ZM13.8951 12.4127C13.7525 12.7682 13.5807 13.0338 13.3053 13.3072C13.0299 13.5826 12.7662 13.7545 12.4107 13.8971C11.3834 14.3053 8.94394 14.2135 7.80527 14.2135C6.6666 14.2135 4.22519 14.3053 3.19785 13.899C2.84238 13.7564 2.57675 13.5846 2.30332 13.3092C2.02793 13.0338 1.85605 12.7701 1.71347 12.4146C1.30722 11.3853 1.39902 8.94589 1.39902 7.80722C1.39902 6.66855 1.30722 4.22714 1.71347 3.1998C1.85605 2.84433 2.02793 2.57871 2.30332 2.30527C2.57871 2.03183 2.84238 1.858 3.19785 1.71542C4.22519 1.30917 6.6666 1.40097 7.80527 1.40097C8.94394 1.40097 11.3853 1.30917 12.4127 1.71542C12.7682 1.858 13.0338 2.02988 13.3072 2.30527C13.5826 2.58066 13.7545 2.84433 13.8971 3.1998C14.3033 4.22714 14.2115 6.66855 14.2115 7.80722C14.2115 8.94589 14.3033 11.3853 13.8951 12.4127Z" fill="white"/>
</svg>
